<svg width="24" height="24" xmlns="http://www.w3.org/2000/svg">

 <g>
  <title>background</title>
  <rect fill="none" id="canvas_background" height="602" width="802" y="-1" x="-1"/>
 </g>
 <g>
  <title>Layer 1</title>
  <path fill="#8490a4" id="svg_1" d="m9,12l-4.463,4.969l-4.537,-4.969l3,0c0,-4.97 4.03,-9 9,-9c2.395,0 4.565,0.942 6.179,2.468l-2.004,2.231c-1.081,-1.05 -2.553,-1.699 -4.175,-1.699c-3.309,0 -6,2.691 -6,6l3,0zm10.463,-4.969l-4.463,4.969l3,0c0,3.309 -2.691,6 -6,6c-1.623,0 -3.094,-0.65 -4.175,-1.699l-2.004,2.231c1.613,1.526 3.784,2.468 6.179,2.468c4.97,0 9,-4.03 9,-9l3,0l-4.537,-4.969z"/>
 </g>
</svg>