<svg width="364.823" height="364.823" xmlns="http://www.w3.org/2000/svg">

 <g>
  <title>background</title>
  <rect fill="none" id="canvas_background" height="304.4" width="304.4" y="-1" x="-1"/>
 </g>
 <g>
  <title>Layer 1</title>
  <g id="svg_1">
   <g id="svg_2">
    <path fill="#ffffff" id="svg_3" d="m147.012,313.2c-5.6,0 -10.4,4.4 -10.4,10.4l0,27.2c0,5.6 4.4,10.4 10.4,10.4c5.6,0 10.4,-4.4 10.4,-10.4l0,-27.2c0,-5.6 -4.4,-10.4 -10.4,-10.4z"/>
   </g>
  </g>
  <g id="svg_4">
   <g id="svg_5">
    <path fill="#ffffff" id="svg_6" d="m65.812,238c-5.6,0 -10.4,4.4 -10.4,10.4l0,102.4c0,5.6 4.4,10.4 10.4,10.4c6,0 10.4,-4.8 10.4,-10.4l0,-102.4c0,-5.6 -4.4,-10.4 -10.4,-10.4z"/>
   </g>
  </g>
  <g id="svg_7">
   <g id="svg_8">
    <path fill="#ffffff" id="svg_9" d="m198.612,354.4l0,-14.8c0,-5.6 -4.8,-10.4 -10.4,-10c-5.6,0 -10.4,4.8 -10,10.4l0,14.8c0,5.6 4.8,10.4 10.4,10c5.6,0 10.4,-4.8 10,-10.4z"/>
   </g>
  </g>
  <g id="svg_10">
   <g id="svg_11">
    <path fill="#ffffff" id="svg_12" d="m103.012,272c-5.6,0 -10.4,4.4 -10.4,10.4l0,30c0,6 4.8,10.4 10.4,10.4c5.6,0 10.4,-4.4 10.4,-10.4l0,-30c0,-5.6 -4.4,-10.4 -10.4,-10.4z"/>
   </g>
  </g>
  <g id="svg_13">
   <g id="svg_14">
    <path fill="#ffffff" id="svg_15" d="m103.412,329.6c-5.6,0 -10.4,4.4 -10.4,10l0,14.8c-0.4,6 4,10.4 10,10.4c5.6,0 10.4,-4.4 10.4,-10l0,-14.8c0,-5.6 -4.4,-10.4 -10,-10.4z"/>
   </g>
  </g>
  <g id="svg_16">
   <g id="svg_17">
    <path fill="#ffffff" id="svg_18" d="m225.012,238c-5.6,0 -10.4,4.4 -10.4,10.4l0,102.4c0.4,5.6 4.8,10.4 10.4,10.4c5.6,0 10.4,-4.4 10.4,-10.4l0,-102.4c0,-5.6 -4.4,-10.4 -10.4,-10.4z"/>
   </g>
  </g>
  <g id="svg_19">
   <g id="svg_20">
    <path fill="#ffffff" id="svg_21" d="m338.612,86.8c-15.6,-15.6 -36.8,-24.8 -60.4,-24.8c-2.4,0 -5.2,0 -7.6,0.4c-8,-17.6 -20.8,-32.4 -36.4,-43.2c-17.6,-12.4 -38.8,-19.2 -61.6,-19.2c-26.4,0 -51.2,9.6 -70,26c-16.8,14.4 -29.6,34.4 -34.8,57.2c-17.2,2 -32.8,9.6 -44.4,21.6c-13.6,13.6 -22,32.4 -22,52.8c0,20.8 8.4,39.2 22,52.8c13.6,13.6 32.4,22 52.8,22l73.2,0l-23.6,60.8c-2,5.2 0.4,11.2 6,13.2c4.4,1.6 8.8,0.4 11.6,-3.2l62.4,-71.2l72.4,0c23.6,0 44.8,-9.6 60.4,-24.8c15.6,-15.6 24.8,-36.8 24.8,-60.4c0,-23.2 -9.6,-44.4 -24.8,-60zm-146.4,112.4l15.6,0l-13.6,15.2c-0.4,0.4 -0.8,0.8 -1.2,1.2l-26.4,30.4l7.6,-19.6c0.4,-0.4 0.4,-1.2 0.8,-1.6l0.8,-1.6c0.8,-1.2 1.2,-2.8 1.2,-4.4c0,-5.6 -4.8,-10.4 -10.4,-10.4l-14.8,0l32.8,-68l24.8,0l-25.2,42.8c-1.2,1.6 -1.6,3.6 -1.6,5.6c-0.8,5.6 3.6,10.4 9.6,10.4zm131.6,-6.4c-11.6,11.6 -28,18.8 -45.6,18.8l-54,0l14,-16c3.6,-4.4 3.2,-10.8 -0.8,-14.4c-2,-1.6 -4.4,-2.4 -6.8,-2.4l-20.4,0l25.6,-43.2c2.8,-4.8 1.2,-11.2 -3.6,-14c-1.6,-0.8 -3.6,-1.6 -5.2,-1.6l-49.2,0c-4.4,0 -8,2.8 -9.6,6.4l-41.6,85.2l-50,0c-14.8,0 -28.4,-6 -38.4,-16s-16,-23.2 -16,-38.4c0,-14.8 6,-28.4 16,-38.4s23.2,-16 38.4,-16c1.6,0 3.6,-0.4 4.8,-1.2c2.4,-1.6 4,-4 4.4,-6.8c3.2,-21.2 14,-39.6 29.2,-52.8c15.2,-13.2 35.2,-21.2 56.8,-21.2c18.4,0 35.6,5.6 49.6,15.6c11.2,8 20.8,18.4 27.2,30.8c-2.4,0.8 -4.4,1.6 -6.4,2.8c-9.6,4.4 -19.6,11.6 -27.6,20.4c-3.6,4.4 -3.2,10.8 0.8,14.4c4.4,3.6 10.8,3.2 14.4,-0.8c6,-6.8 13.6,-12.4 22,-16c8.4,-3.6 17.2,-5.6 26.4,-5.6c18,0 34,7.2 45.6,18.8c11.6,11.6 18.8,28 18.8,45.6c0,17.6 -6.8,34 -18.8,46z"/>
   </g>
  </g>
  <g id="svg_22">
   <g id="svg_23">
    <path fill="#ffffff" id="svg_24" d="m188.212,272c-5.6,0 -10.4,4.8 -10.4,10.4l0,30c0.4,6 4.8,10.4 10.4,10.4c5.6,0 10.4,-4.8 10.4,-10.4l0,-30c0,-5.6 -4.8,-10.4 -10.4,-10.4z"/>
   </g>
  </g>
  <g id="svg_25">
   <g id="svg_26">
    <path fill="#ffffff" id="svg_27" d="m272.612,354.4l0,-14.8c0,-5.6 -4.8,-10.4 -10.4,-10c-5.6,0 -10.4,4.8 -10,10.4l0,14.8c0,5.6 4.8,10.4 10.4,10c5.6,0 10.4,-4.8 10,-10.4z"/>
   </g>
  </g>
  <g id="svg_28">
   <g id="svg_29">
    <path fill="#ffffff" id="svg_30" d="m262.212,272c-5.6,0 -10.4,4.8 -10.4,10.4l0,30c0.4,6 4.8,10.4 10.4,10.4c5.6,0 10.4,-4.8 10.4,-10.4l0,-30c0,-5.6 -4.8,-10.4 -10.4,-10.4z"/>
   </g>
  </g>
  <g id="svg_31">
   <g id="svg_32">
    <path fill="#ffffff" id="svg_33" d="m299.012,238c-5.6,0 -10.4,4.4 -10.4,10.4l0,102.4c0.4,5.6 4.8,10.4 10.4,10.4c5.6,0 10.4,-4.4 10.4,-10.4l0,-102.4c0,-5.6 -4.4,-10.4 -10.4,-10.4z"/>
   </g>
  </g>
  <g id="svg_34"/>
  <g id="svg_35"/>
  <g id="svg_36"/>
  <g id="svg_37"/>
  <g id="svg_38"/>
  <g id="svg_39"/>
  <g id="svg_40"/>
  <g id="svg_41"/>
  <g id="svg_42"/>
  <g id="svg_43"/>
  <g id="svg_44"/>
  <g id="svg_45"/>
  <g id="svg_46"/>
  <g id="svg_47"/>
  <g id="svg_48"/>
 </g>
</svg>