<svg width="328.8" height="328.8" xmlns="http://www.w3.org/2000/svg">

 <g>
  <title>background</title>
  <rect fill="none" id="canvas_background" height="304.4" width="304.4" y="-1" x="-1"/>
 </g>
 <g>
  <title>Layer 1</title>
  <g id="svg_1">
   <g id="svg_2">
    <path fill="#ffffff" id="svg_3" d="m275.2,243.2c-8,-8 -18.8,-12.8 -30.8,-12.8c-0.4,0 -0.8,0 -0.8,0l-112.4,0c-5.6,0 -10.4,4.4 -10.4,10.4s4.4,10.4 10.4,10.4l112.4,0c0.4,0 0.4,0 0.8,0c6.4,0 12,2.4 16,6.8c4,4 6.8,10 6.8,16c0,6.4 -2.4,12 -6.8,16c-4,4.4 -10,6.8 -16,6.8c-6.4,0 -12,-2.4 -16,-6.8c-4,-4 -6.8,-10 -6.8,-16c0,-5.6 -4.8,-10.4 -10.4,-10.4c-5.6,0 -10.4,4.8 -10.4,10.4c0,12 4.8,22.8 12.8,30.8s18.8,12.8 30.8,12.8s22.8,-4.8 30.8,-12.8s12.8,-18.8 12.8,-30.8s-4.8,-22.8 -12.8,-30.8z"/>
   </g>
  </g>
  <g id="svg_4">
   <g id="svg_5">
    <path fill="#ffffff" id="svg_6" d="m306,90c-14,-14 -33.6,-22.8 -55.2,-22.8c-2,0 -4.4,0 -6.4,0.4c-7.6,-16 -18.8,-29.2 -32.8,-38.8c-16,-11.2 -35.6,-17.6 -56,-17.6c-24.4,0 -46.8,8.8 -64,23.6c-15.2,13.2 -26.4,30.8 -31.6,51.6c-15.6,2 -29.6,9.2 -40,19.6c-12.4,12.4 -20,29.6 -20,48.4s7.6,36 20,48.4c12.4,12.8 29.6,20.4 48.8,20.4l182,0c21.6,0 40.8,-8.8 55.2,-22.8c14,-14 22.8,-33.6 22.8,-55.2s-8.8,-40.8 -22.8,-55.2zm-16,96c-10.4,10.4 -24.8,16.8 -40.4,16.8l-180.8,0c-13.2,0 -25.2,-5.2 -34,-14c-8.8,-8.8 -14,-20.8 -14,-34c0,-13.6 5.2,-25.6 14,-34c8.8,-8.8 20.8,-14 34,-14c1.6,0 3.6,-0.4 4.8,-1.2c2.4,-1.6 4,-4 4.4,-6.8c2.8,-18.8 12.4,-35.6 26,-47.2c13.6,-11.6 31.6,-18.8 50.8,-18.8c16.4,0 31.6,5.2 44.4,14c9.6,6.8 18,15.6 23.6,26.4c-1.6,0.8 -3.2,1.2 -4.8,2c-10,4.4 -18.8,11.2 -26.4,19.2c-3.6,4.4 -3.2,10.8 0.8,14.4c4.4,3.6 10.8,3.2 14.4,-0.8c5.6,-6 12,-10.8 19.2,-14.4c7.2,-3.2 15.2,-5.2 23.6,-5.2c16,0 30,6.4 40.4,16.8c10.4,10.4 16.8,24.8 16.8,40.4c0,16 -6.4,30 -16.8,40.4z"/>
   </g>
  </g>
  <g id="svg_7"/>
  <g id="svg_8"/>
  <g id="svg_9"/>
  <g id="svg_10"/>
  <g id="svg_11"/>
  <g id="svg_12"/>
  <g id="svg_13"/>
  <g id="svg_14"/>
  <g id="svg_15"/>
  <g id="svg_16"/>
  <g id="svg_17"/>
  <g id="svg_18"/>
  <g id="svg_19"/>
  <g id="svg_20"/>
  <g id="svg_21"/>
 </g>
</svg>