<svg width="512" height="512" xmlns="http://www.w3.org/2000/svg">

 <g>
  <title>background</title>
  <rect fill="none" id="canvas_background" height="304.4" width="304.4" y="-1" x="-1"/>
 </g>
 <g>
  <title>Layer 1</title>
  <g id="svg_1">
   <path fill="#ffffff" id="svg_2" d="m405.051,42.294c-24.259,0 -48.037,8.364 -66.953,23.551c-6.46,5.187 -7.492,14.627 -2.307,21.087c5.187,6.459 14.628,7.493 21.088,2.306c13.61,-10.927 30.718,-16.944 48.172,-16.944c42.43,0 76.949,34.519 76.949,76.949s-34.52,76.949 -76.949,76.949l-282.052,0c-8.284,0 -15,6.716 -15,15s6.716,15 15,15l282.052,0c58.972,0 106.949,-47.977 106.949,-106.949s-47.978,-106.949 -106.949,-106.949z"/>
   <path fill="#ffffff" id="svg_3" d="m94.262,196.293l160.237,0c8.285,0 15,-6.716 15,-15s-6.715,-15 -15,-15l-160.237,0c-8.284,0 -15,6.716 -15,15s6.716,15 15,15z"/>
   <path fill="#ffffff" id="svg_4" d="m250.295,286.294l-235.295,0c-8.284,0 -15,6.716 -15,15s6.716,15 15,15l235.295,0c34.025,0 61.707,27.681 61.707,61.706s-27.682,61.706 -61.707,61.706c-13.997,0 -27.715,-4.826 -38.63,-13.588c-6.459,-5.186 -15.9,-4.154 -21.087,2.306s-4.154,15.901 2.306,21.087c16.221,13.022 36.61,20.194 57.411,20.194c50.567,0 91.707,-41.139 91.707,-91.706s-41.14,-91.705 -91.707,-91.705z"/>
   <path fill="#ffffff" id="svg_5" d="m15,196.293l20.235,0c8.284,0 15,-6.716 15,-15s-6.716,-15 -15,-15l-20.235,0c-8.284,0 -15,6.716 -15,15s6.716,15 15,15z"/>
   <path fill="#ffffff" id="svg_6" d="m196,361.001c0,-8.284 -6.716,-15 -15,-15l-90,0c-8.284,0 -15,6.716 -15,15s6.716,15 15,15l90,0c8.285,0 15,-6.716 15,-15z"/>
  </g>
 </g>
</svg>