<svg width="480" height="480.008" xmlns="http://www.w3.org/2000/svg">

 <g>
  <title>background</title>
  <rect fill="none" id="canvas_background" height="304.4" width="304.4" y="-1" x="-1"/>
 </g>
 <g>
  <title>Layer 1</title>
  <path fill="#ffffff" id="svg_1" d="m460.23828,288.12891c-2.73047,-1.57813 -6.00781,-1.91407 -9,-0.92188l-66.40234,22.05078l-40.47266,-23.37109l45.83984,-16.14453c2.48829,-0.8711 4.57813,-2.60547 5.89844,-4.89453l0.4375,-0.75782c3.05078,-5.28125 1.24219,-12.03515 -4.03906,-15.08203c-2.72656,-1.57422 -6.00781,-1.91015 -9,-0.91797l-66.39844,22.04688l-36.21484,-20.89844l0,-18.46875l36.20703,-20.90625l66.39844,22.04688c2.99218,0.99218 6.27343,0.66406 9,-0.91797c5.28125,-3.04688 7.08984,-9.80078 4.03906,-15.08203l-0.42969,-0.76563c-1.32031,-2.28125 -3.41015,-4.01562 -5.89844,-4.89844l-45.83984,-16.14062l40.47266,-23.3711l66.40234,22.05079c2.99219,0.99218 6.26953,0.66406 9,-0.92188c5.27734,-3.04687 7.08594,-9.80078 4.03906,-15.07812l-0.4414,-0.76172c-1.32032,-2.28125 -3.40625,-4.01563 -5.89453,-4.89453l-45.83985,-16.14454l22.76563,-13.14453c7.65625,-4.41406 10.27343,-14.20703 5.85937,-21.85547c-4.41797,-7.65625 -14.20312,-10.27343 -21.85937,-5.85546l-22.76563,13.14453l8.94141,-47.76953c0.48828,-2.59375 0.02734,-5.27344 -1.28516,-7.55079l-0.4414,-0.76171c-3.04688,-5.28125 -9.80078,-7.08594 -15.07813,-4.03907c-2.73047,1.57422 -4.65625,4.2461 -5.29687,7.33594l-14.11328,68.52734l-40.47266,23.36719l8.94531,-47.76562c0.48828,-2.59375 0.02344,-5.27344 -1.28906,-7.55469l-0.4375,-0.75781c-3.05078,-5.28125 -9.80078,-7.08985 -15.08203,-4.03907c-2.72657,1.57422 -4.65625,4.2461 -5.29688,7.33594l-14.10937,68.52735l-25.95313,14.98437l-26.24609,-13.11328l0,-32l52.29297,-46.48047c2.35156,-2.09375 3.70703,-5.10547 3.70703,-8.25391c0,-6.09765 -4.94531,-11.04296 -11.04297,-11.04296l-0.87109,0c-2.63282,0 -5.1836,0.94531 -7.1836,2.65625l-36.90234,31.63281l0,-46.72656l52.29297,-46.48047c2.35156,-2.10547 3.70703,-5.10547 3.70703,-8.26563c0,-6.09375 -4.94531,-11.03906 -11.04297,-11.03906l-0.87109,0c-2.63282,0 -5.1836,0.94531 -7.1836,2.65625l-36.90234,31.63281l0,-26.28906c0,-8.83984 -7.16016,-16 -16,-16c-8.84375,0 -16,7.16016 -16,16l0,26.28906l-36.89844,-31.625c-2,-1.71094 -4.55078,-2.65625 -7.18359,-2.65625l-0.87891,0c-6.09766,0 -11.03906,4.94531 -11.03906,11.03906c0,3.15235 1.35156,6.16016 3.70312,8.25782l52.29688,46.48047l0,46.72656l-36.89844,-31.625c-2,-1.71094 -4.55078,-2.65625 -7.18359,-2.65625l-0.87891,0c-6.09766,0 -11.03906,4.94531 -11.03906,11.04297c0,3.15234 1.35156,6.16015 3.70312,8.2539l52.29688,46.47266l0,32l-26.25781,13.12891l-25.95313,-14.98438l-14.10937,-68.52734c-0.63282,-3.08985 -2.5625,-5.76172 -5.29688,-7.33594c-5.28125,-3.05078 -12.03125,-1.24219 -15.08203,4.03906l-0.4375,0.75781c-1.32031,2.28125 -1.77734,4.96094 -1.28906,7.55469l8.94531,47.76563l-40.47266,-23.36719l-14.11328,-68.52734c-0.63281,-3.08985 -2.55859,-5.76172 -5.29687,-7.33594c-5.27735,-3.04688 -12.03125,-1.23828 -15.07813,4.03906l-0.4414,0.76172c-1.32032,2.27734 -1.77344,4.96094 -1.28516,7.55078l8.94141,47.76953l-22.76563,-13.14453c-7.65625,-4.41797 -17.44141,-1.80078 -21.85937,5.85547c-4.41407,7.65625 -1.79688,17.44141 5.85937,21.85547l22.76563,13.14453l-45.83985,16.14453c-2.48828,0.87109 -4.57422,2.60938 -5.89453,4.89453l-0.44141,0.76172c-3.04687,5.27734 -1.23828,12.03125 4.03907,15.07813c2.73047,1.57812 6.00781,1.91406 9,0.92187l66.40234,-22.04687l40.47266,23.36718l-45.83985,16.14453c-2.48828,0.8711 -4.57812,2.60547 -5.89843,4.89454l-0.4375,0.76171c-3.05079,5.27735 -1.24219,12.03125 4.03906,15.07813c2.72656,1.57422 6.00781,1.91016 9,0.92187l66.39844,-22.05078l36.22656,20.89844l0,18.46875l-36.21094,20.90625l-66.39844,-22.04687c-2.99218,-0.99219 -6.27343,-0.66407 -9,0.91796c-5.28125,3.04688 -7.08984,9.80079 -4.03906,15.08204l0.4375,0.75781c1.32031,2.28125 3.41016,4.01562 5.89844,4.89844l45.83984,16.14062l-40.47265,23.37109l-66.40235,-22.05078c-2.99219,-0.99218 -6.26953,-0.66406 -9,0.92188c-5.27734,3.04687 -7.08594,9.80078 -4.03906,15.07812l0.44141,0.76172c1.32031,2.28125 3.40625,4.01563 5.89453,4.89453l45.83984,16.14453l-22.76562,13.14454c-7.65625,4.41406 -10.27344,14.19921 -5.85547,21.85546c4.41406,7.65625 14.19922,10.27344 21.85547,5.85547l22.76562,-13.14453l-8.94141,47.76953c-0.48828,2.59375 -0.02734,5.27344 1.28516,7.55078l0.44141,0.76172c3.04687,5.28125 9.80078,7.08594 15.07812,4.03907c2.73047,-1.57422 4.65625,-4.2461 5.29688,-7.33594l14.11328,-68.52735l40.47265,-23.36718l-8.94531,47.76562c-0.48828,2.59375 -0.02344,5.27344 1.28906,7.55469l0.4375,0.75781c3.05079,5.28125 9.80079,7.08985 15.08204,4.03906c2.72656,-1.57421 4.65625,-4.24609 5.29687,-7.33593l14.10938,-68.52735l25.95312,-14.98437l26.24219,13.11328l0,32l-52.29688,46.48047c-2.35156,2.10547 -3.70312,5.10547 -3.70312,8.2539c0,6.09766 4.9414,11.04297 11.03906,11.04297l0.87109,0c2.63282,0 5.1836,-0.94531 7.1836,-2.65625l36.90625,-31.625l0,46.72657l-52.29688,46.48046c-2.35156,2.09766 -3.70312,5.10547 -3.70312,8.25782c0,6.09375 4.9414,11.03906 11.03906,11.03906l0.87109,0c2.63282,0 5.1836,-0.94531 7.1836,-2.65625l36.90625,-31.625l0,26.28906c0,8.83985 7.15625,16 16,16c8.83984,0 16,-7.16015 16,-16l0,-26.28906l36.89453,31.625c2,1.71094 4.55078,2.65625 7.18359,2.65625l0.8711,0c6.09765,0 11.03906,-4.94531 11.03906,-11.03906c0,-3.15235 -1.35156,-6.16016 -3.70313,-8.25782l-52.28515,-46.48046l0,-46.72657l36.89453,31.625c2,1.71094 4.55078,2.65625 7.18359,2.65625l0.8711,0c6.09765,0 11.03906,-4.94531 11.03906,-11.04297c0,-3.14843 -1.35156,-6.16015 -3.70313,-8.2539l-52.28515,-46.48047l0,-32l26.2539,-13.12891l25.95313,14.98438l14.10937,68.52734c0.63282,3.08985 2.5625,5.76172 5.29688,7.33594c5.28125,3.05078 12.03125,1.24219 15.08203,-4.03906l0.4375,-0.75782c1.32031,-2.28125 1.77734,-4.96093 1.28906,-7.55468l-8.94531,-47.76563l40.47266,23.36719l14.11328,68.52734c0.63281,3.08985 2.55859,5.76172 5.29687,7.33594c5.27735,3.04688 12.03125,1.23828 15.07813,-4.03906l0.4414,-0.76172c1.32032,-2.27734 1.77344,-4.96094 1.28907,-7.55078l-8.94532,-47.76953l22.76563,13.14453c7.65625,4.41797 17.44141,1.79297 21.85937,-5.85547c4.41407,-7.65625 1.79688,-17.44141 -5.85937,-21.85547l-22.76563,-13.14453l45.83985,-16.14453c2.48828,-0.8711 4.57422,-2.60938 5.89453,-4.89453l0.44141,-0.76172c3.04687,-5.26953 1.23828,-12.02344 -4.04688,-15.07031zm-211.35156,-32.12891l-16,8l-16,-8l0,-32l16,-8l16,8l0,32zm0,0"/>
 </g>
</svg>